<svg width="48" height="48" viewBox="0 0 48 48" fill="none" xmlns="http://www.w3.org/2000/svg">
<rect width="48" height="48" fill="white"/>
<mask id="path-1-inside-1" fill="white">
<path fill-rule="evenodd" clip-rule="evenodd" d="M18.2367 10C17.315 10 16.5127 10.6298 16.2939 11.5251L15.4445 15H8C3.58172 15 0 18.5817 0 23V35C0 39.4183 3.58172 43 8 43H40C44.4183 43 48 39.4183 48 35V23C48 18.5817 44.4183 15 40 15H32.5555L31.7061 11.5251C31.4873 10.6298 30.685 10 29.7633 10H18.2367Z"/>
</mask>
<path d="M16.2939 11.5251L18.2367 12L18.2367 12L16.2939 11.5251ZM15.4445 15V17H17.0144L17.3872 15.4749L15.4445 15ZM32.5555 15L30.6128 15.4749L30.9856 17H32.5555V15ZM31.7061 11.5251L29.7633 12L29.7633 12L31.7061 11.5251ZM18.2367 12L18.2367 12V8C16.3934 8 14.7888 9.25962 14.3511 11.0502L18.2367 12ZM17.3872 15.4749L18.2367 12L14.3511 11.0502L13.5017 14.5251L17.3872 15.4749ZM8 17H15.4445V13H8V17ZM2 23C2 19.6863 4.68629 17 8 17V13C2.47715 13 -2 17.4772 -2 23H2ZM2 35V23H-2V35H2ZM8 41C4.68629 41 2 38.3137 2 35H-2C-2 40.5228 2.47715 45 8 45V41ZM40 41H8V45H40V41ZM46 35C46 38.3137 43.3137 41 40 41V45C45.5228 45 50 40.5228 50 35H46ZM46 23V35H50V23H46ZM40 17C43.3137 17 46 19.6863 46 23H50C50 17.4772 45.5228 13 40 13V17ZM32.5555 17H40V13H32.5555V17ZM29.7633 12L30.6128 15.4749L34.4983 14.5251L33.6489 11.0502L29.7633 12ZM29.7633 12L29.7633 12L33.6489 11.0502C33.2112 9.25962 31.6066 8 29.7633 8V12ZM18.2367 12H29.7633V8H18.2367V12Z" fill="#152C5B" mask="url(#path-1-inside-1)"/>
<circle cx="23.5" cy="29.5" r="6.5" stroke="#FF498B" stroke-width="2"/>
<path d="M34 20H41" stroke="#152C5B" stroke-width="2" stroke-linecap="round"/>
</svg>
