<svg width="27" height="27" viewBox="0 0 27 27" fill="none" xmlns="http://www.w3.org/2000/svg">
<rect width="27" height="27" fill="white"/>
<rect width="27" height="27" fill="#BCC3D1"/>
<rect x="3" y="4" width="21" height="18" rx="2" fill="#C4C4C4" stroke="white" stroke-width="2"/>
<path d="M2 10L25 10" stroke="white" stroke-width="2"/>
<path d="M18 6V2" stroke="white" stroke-width="2" stroke-linecap="round"/>
<path d="M8 6L8 2" stroke="white" stroke-width="2" stroke-linecap="round"/>
<path d="M8.54641 18.45C9.18641 17.8967 9.68974 17.4433 10.0564 17.09C10.4297 16.73 10.7397 16.3567 10.9864 15.97C11.2331 15.5833 11.3564 15.1967 11.3564 14.81C11.3564 14.41 11.2597 14.0967 11.0664 13.87C10.8797 13.6433 10.5831 13.53 10.1764 13.53C9.78307 13.53 9.47641 13.6567 9.25641 13.91C9.04307 14.1567 8.92974 14.49 8.91641 14.91H7.81641C7.83641 14.15 8.06307 13.57 8.49641 13.17C8.93641 12.7633 9.49307 12.56 10.1664 12.56C10.8931 12.56 11.4597 12.76 11.8664 13.16C12.2797 13.56 12.4864 14.0933 12.4864 14.76C12.4864 15.24 12.3631 15.7033 12.1164 16.15C11.8764 16.59 11.5864 16.9867 11.2464 17.34C10.9131 17.6867 10.4864 18.09 9.96641 18.55L9.51641 18.95H12.6864V19.9H7.82641V19.07L8.54641 18.45ZM18.3079 13.59L15.5279 20H14.3779L17.1879 13.71H13.4879V12.74H18.3079V13.59Z" fill="white"/>
</svg>
