<svg width="48" height="48" viewBox="0 0 48 48" fill="none" xmlns="http://www.w3.org/2000/svg">
<g clip-path="url(#clip0)">
<rect width="48" height="48" fill="white"/>
<g filter="url(#filter0_d)">
<path d="M26.5 14.5C26.5 22.1335 20.5008 42.5 13.5 42.5C6.49921 42.5 0 22.1335 0 14.5C0 6.86654 6.21047 1 13.2113 1C20.2121 1 26.5 6.86654 26.5 14.5Z" fill="white"/>
<path d="M25.5 14.5C25.5 18.1492 24.0423 25.0202 21.6945 30.9969C20.5236 33.9777 19.1575 36.667 17.6895 38.5921C16.1865 40.5631 14.7586 41.5 13.5 41.5C12.2347 41.5 10.7751 40.5556 9.22351 38.5807C7.70876 36.6526 6.28126 33.961 5.04882 30.9804C2.57591 24.9999 1 18.1363 1 14.5C1 7.42151 6.76007 2 13.2113 2C19.67 2 25.5 7.42897 25.5 14.5Z" stroke="#152C5B" stroke-width="2"/>
</g>
<circle cx="13" cy="15" r="5" stroke="#FF498B" stroke-width="2"/>
</g>
<defs>
<filter id="filter0_d" x="-3" y="1" width="34.5" height="50.5" filterUnits="userSpaceOnUse" color-interpolation-filters="sRGB">
<feFlood flood-opacity="0" result="BackgroundImageFix"/>
<feColorMatrix in="SourceAlpha" type="matrix" values="0 0 0 0 0 0 0 0 0 0 0 0 0 0 0 0 0 0 127 0"/>
<feOffset dx="1" dy="5"/>
<feGaussianBlur stdDeviation="2"/>
<feColorMatrix type="matrix" values="0 0 0 0 0 0 0 0 0 0 0 0 0 0 0 0 0 0 0.25 0"/>
<feBlend mode="normal" in2="BackgroundImageFix" result="effect1_dropShadow"/>
<feBlend mode="normal" in="SourceGraphic" in2="effect1_dropShadow" result="shape"/>
</filter>
<clipPath id="clip0">
<rect width="48" height="48" fill="white"/>
</clipPath>
</defs>
</svg>
