<svg width="48" height="48" viewBox="0 0 48 48" fill="none" xmlns="http://www.w3.org/2000/svg">
<g clip-path="url(#clip0)">
<rect y="3.8147e-06" width="48" height="48" fill="white"/>
<path d="M3 20C2.44772 20 2 19.5523 2 19L2 9C2 8.44772 2.44772 8 3 8L22 8C22.5523 8 23 8.44771 23 9V19C23 19.5523 22.5523 20 22 20H3Z" stroke="#152C5B" stroke-width="2"/>
<path d="M3 46C2.44772 46 2 45.5523 2 45L2 21C2 20.4477 2.44772 20 3 20H22C22.5523 20 23 20.4477 23 21V45C23 45.5523 22.5523 46 22 46H3Z" stroke="#152C5B" stroke-width="2"/>
<path d="M19 12V16" stroke="#152C5B" stroke-width="2" stroke-linecap="round"/>
<path d="M19 24V28" stroke="#152C5B" stroke-width="2" stroke-linecap="round"/>
</g>
<defs>
<clipPath id="clip0">
<rect width="48" height="48" fill="white"/>
</clipPath>
</defs>
</svg>
