<svg width="48" height="48" viewBox="0 0 48 48" fill="none" xmlns="http://www.w3.org/2000/svg">
<g clip-path="url(#clip0)">
<rect width="48" height="48" fill="white"/>
<g filter="url(#filter0_d)">
<rect y="12" width="28" height="36" rx="7" fill="#FFFDFD"/>
<rect x="1" y="13" width="26" height="34" rx="6" stroke="#152C5B" stroke-width="2"/>
</g>
<g filter="url(#filter1_d)">
<path d="M7 4C7 1.79086 8.79086 0 11 0H17C19.2091 0 21 1.79086 21 4V13H7V4Z" fill="#FFFDFD"/>
<path d="M8 4C8 2.34315 9.34315 1 11 1H17C18.6569 1 20 2.34315 20 4V12H8V4Z" stroke="#152C5B" stroke-width="2"/>
</g>
<path d="M8 18V41" stroke="#FF498B" stroke-width="2" stroke-linecap="round"/>
<path d="M20 18V41" stroke="#FF498B" stroke-width="2" stroke-linecap="round"/>
<path d="M14 18V41" stroke="#FF498B" stroke-width="2" stroke-linecap="round"/>
</g>
<defs>
<filter id="filter0_d" x="-3" y="12" width="36" height="44" filterUnits="userSpaceOnUse" color-interpolation-filters="sRGB">
<feFlood flood-opacity="0" result="BackgroundImageFix"/>
<feColorMatrix in="SourceAlpha" type="matrix" values="0 0 0 0 0 0 0 0 0 0 0 0 0 0 0 0 0 0 127 0"/>
<feOffset dx="1" dy="4"/>
<feGaussianBlur stdDeviation="2"/>
<feColorMatrix type="matrix" values="0 0 0 0 0 0 0 0 0 0 0 0 0 0 0 0 0 0 0.25 0"/>
<feBlend mode="normal" in2="BackgroundImageFix" result="effect1_dropShadow"/>
<feBlend mode="normal" in="SourceGraphic" in2="effect1_dropShadow" result="shape"/>
</filter>
<filter id="filter1_d" x="4" y="0" width="22" height="21" filterUnits="userSpaceOnUse" color-interpolation-filters="sRGB">
<feFlood flood-opacity="0" result="BackgroundImageFix"/>
<feColorMatrix in="SourceAlpha" type="matrix" values="0 0 0 0 0 0 0 0 0 0 0 0 0 0 0 0 0 0 127 0"/>
<feOffset dx="1" dy="4"/>
<feGaussianBlur stdDeviation="2"/>
<feColorMatrix type="matrix" values="0 0 0 0 0 0 0 0 0 0 0 0 0 0 0 0 0 0 0.25 0"/>
<feBlend mode="normal" in2="BackgroundImageFix" result="effect1_dropShadow"/>
<feBlend mode="normal" in="SourceGraphic" in2="effect1_dropShadow" result="shape"/>
</filter>
<clipPath id="clip0">
<rect width="48" height="48" fill="white"/>
</clipPath>
</defs>
</svg>
