<svg width="48" height="48" viewBox="0 0 48 48" fill="none" xmlns="http://www.w3.org/2000/svg">
<rect width="48" height="48" fill="white"/>
<circle cx="24" cy="33" r="4" stroke="#152C5B" stroke-width="2"/>
<path fill-rule="evenodd" clip-rule="evenodd" d="M29.8098 29C28.5448 27.1865 26.4432 26 24.0645 26C21.6857 26 19.5841 27.1865 18.3192 29H16C17.4727 26.0366 20.5308 24 24.0645 24C27.5982 24 30.6563 26.0366 32.129 29H29.8098Z" fill="#152C5B"/>
<path fill-rule="evenodd" clip-rule="evenodd" d="M34.8386 29C32.6114 24.1067 28.4315 21 24 21C19.5685 21 15.3886 24.1067 13.1614 29H11C13.374 23.0731 18.3036 19 24 19C29.6964 19 34.626 23.0731 37 29H34.8386Z" fill="#152C5B"/>
<path fill-rule="evenodd" clip-rule="evenodd" d="M38.8729 29C38.0436 26.7905 36.9957 24.7896 35.7789 23.058C32.6053 18.5415 28.4107 16 24 16C19.5893 16 15.3947 18.5415 12.2211 23.058C11.0043 24.7896 9.95643 26.7905 9.12706 29H7C10.1045 20.1097 16.5509 14 24 14C31.4491 14 37.8955 20.1097 41 29H38.8729Z" fill="#152C5B"/>
</svg>
